<svg xmlns="http://www.w3.org/2000/svg" width="152.389" height="45" viewBox="0 0 152.389 45"><defs><style>.a{fill:#f15713;}.b{fill:#fff;}</style></defs><path class="a" d="M0,19a18.34,18.34,0,0,0,2.38,8H33.62A18.339,18.339,0,0,0,36,19v-.95H.05A5.445,5.445,0,0,0,0,19Z"/><path class="a" d="M33.3,9A17.81,17.81,0,0,0,18,0,17.81,17.81,0,0,0,2.7,9Z"/><path class="a" d="M8.52,36c4.29,5.15,8.74,9,9.48,9s5.19-3.85,9.48-9Z"/><path class="b" d="M51.089,18c-.29-.86.08-1.42,1-1.42h1.27a1.33,1.33,0,0,1,1.37,1l4.24,11.72.67,2.56h.08c.22-1,.44-1.86.67-2.56l4.21-11.71a1.33,1.33,0,0,1,1.37-1h1.27c.89,0,1.3.56,1,1.42l-6.1,16.44a1.35,1.35,0,0,1-1.38,1h-2.11a1.34,1.34,0,0,1-1.38-1Z"/><path class="b" d="M71,32.141l.37-.53a1.19,1.19,0,0,1,1.71-.26,8.471,8.471,0,0,0,4.61,1.53c1.9,0,3.2-.89,3.2-2.49,0-1.34-1.52-2.24-3.46-2.87-2.71-.93-6.28-2.27-6.25-5.95a4.61,4.61,0,0,1,1.94-4A8,8,0,0,1,78,16.141a9.53,9.53,0,0,1,5.21,1.45c.71.33.82.89.41,1.64l-.34.55c-.33.64-.89.75-1.63.41a7.859,7.859,0,0,0-3.83-1.08c-1.9,0-3.17.86-3.17,2.39,0,1.33,1.53,2.26,3.43,2.9,2.79.93,6.28,2.15,6.28,5.91a5,5,0,0,1-1.89,4,7.33,7.33,0,0,1-4.88,1.56,10.09,10.09,0,0,1-6.32-2A1.127,1.127,0,0,1,71,32.141Z"/><path class="b" d="M87.7,10.369a1.08,1.08,0,0,1,1.23-1.22h1.15a1.07,1.07,0,0,1,1.19,1.22v13.1H94l4.57-6.1a1.639,1.639,0,0,1,1.45-.79h1.38c1,0,1.34.71.74,1.49l-5.2,6.81V25l6,9c.56.86.19,1.49-.82,1.49h-1.48a1.6,1.6,0,0,1-1.45-.86l-5.14-8h-2.78v7.59a1.08,1.08,0,0,1-1.19,1.23h-1.15a1.09,1.09,0,0,1-1.23-1.23Z"/><path class="b" d="M106.6,10.371a1.07,1.07,0,0,1,.045-.5,1.08,1.08,0,0,1,1.185-.724H109a1.081,1.081,0,0,1,1.23,1.22v19.46c0,1.56.56,2.38,1.71,2.49a1,1,0,0,1,1,1.08v.89a1.11,1.11,0,0,1-1.27,1.27c-3.35,0-5-1.75-5-5.29Z"/><path class="b" d="M117.608,25.481a10.774,10.774,0,0,1,2.83-1.05,20.778,20.778,0,0,1,5.62-.63h1v-.48c0-2.75-1.37-4.13-4.09-4.13a8.743,8.743,0,0,0-4.24,1.19,1.171,1.171,0,0,1-1.365-.076,1.184,1.184,0,0,1-.305-.374l-.3-.52a1.081,1.081,0,0,1,.41-1.67,12,12,0,0,1,6.1-1.6c4.72,0,7.4,2.6,7.4,7.36v10.68a1.088,1.088,0,0,1-.309.921,1.089,1.089,0,0,1-.921.309h-.93a1.078,1.078,0,0,1-1.178-.734,1.071,1.071,0,0,1-.042-.5v-1.12l.11-1.15h-.08a5.465,5.465,0,0,1-.93,1.38,6.439,6.439,0,0,1-5.21,2.56,6.871,6.871,0,0,1-4.46-1.52,5,5,0,0,1-1.86-4.06,5.462,5.462,0,0,1,2.75-4.79ZM122,33a4.4,4.4,0,0,0,3.65-1.86,6.477,6.477,0,0,0,1.41-4.14v-.82h-1c-5.09,0-7.62,1.27-7.62,3.8C118.468,31.611,119.768,33,122,33Z"/><path class="b" d="M136.808,18.85A7.782,7.782,0,0,1,143,16.14,6.488,6.488,0,0,1,148.6,19l.19.34h.07a7.023,7.023,0,0,1-.11-1.27v-7.7a1.1,1.1,0,0,1,.046-.5A1.081,1.081,0,0,1,150,9.15h1.15a1.08,1.08,0,0,1,1.185.724,1.07,1.07,0,0,1,.045.5V34.18a1.092,1.092,0,0,1-.308.921,1.093,1.093,0,0,1-.922.309h-1c-.82,0-1.23-.37-1.23-1.15V33.18l.08-.93h-.08a5.069,5.069,0,0,1-.85,1.26,6.8,6.8,0,0,1-5.36,2.34,7.472,7.472,0,0,1-6.06-2.71,10.916,10.916,0,0,1-2.22-7.14A10.312,10.312,0,0,1,136.808,18.85Zm6.62,13.88c3.09,0,5.43-2.27,5.43-6.77a7.867,7.867,0,0,0-1.41-4.69,4.579,4.579,0,0,0-3.95-2c-3.08,0-5.39,2.57-5.39,6.7S140.268,32.73,143.428,32.73Z"/></svg>